<mxfile host="Electron" modified="2024-04-03T16:40:41.352Z" agent="Mozilla/5.0 (Windows NT 10.0; Win64; x64) AppleWebKit/537.36 (KHTML, like Gecko) draw.io/24.1.0 Chrome/120.0.6099.109 Electron/28.1.0 Safari/537.36" etag="8BYhELZ46iau1vPnnrBd" version="24.1.0" type="device">
  <diagram name="Page-1" id="YYAQWPw2LIstAGVsiKOH">
    <mxGraphModel dx="1084" dy="951" grid="1" gridSize="10" guides="1" tooltips="1" connect="1" arrows="1" fold="1" page="1" pageScale="1" pageWidth="850" pageHeight="1100" math="0" shadow="0">
      <root>
        <mxCell id="0" />
        <mxCell id="1" parent="0" />
        <mxCell id="Z-WXcTuaH3rJTFH5lLq_-1" value="JavaScript" style="rounded=0;whiteSpace=wrap;html=1;fillColor=#ffe6cc;strokeColor=#d79b00;" vertex="1" parent="1">
          <mxGeometry x="330" y="420" width="230" height="50" as="geometry" />
        </mxCell>
        <mxCell id="Z-WXcTuaH3rJTFH5lLq_-2" value="CSS" style="rounded=0;whiteSpace=wrap;html=1;fillColor=#dae8fc;strokeColor=#6c8ebf;" vertex="1" parent="1">
          <mxGeometry x="330" y="480" width="230" height="50" as="geometry" />
        </mxCell>
        <mxCell id="Z-WXcTuaH3rJTFH5lLq_-3" value="HTML" style="rounded=0;whiteSpace=wrap;html=1;fillColor=#d5e8d4;strokeColor=#82b366;" vertex="1" parent="1">
          <mxGeometry x="330" y="540" width="230" height="50" as="geometry" />
        </mxCell>
        <mxCell id="Z-WXcTuaH3rJTFH5lLq_-4" value="Button" style="rounded=0;whiteSpace=wrap;html=1;horizontal=0;fillColor=#d5e8d4;strokeColor=#82b366;" vertex="1" parent="1">
          <mxGeometry x="640" y="420" width="20" height="170" as="geometry" />
        </mxCell>
        <mxCell id="Z-WXcTuaH3rJTFH5lLq_-7" value="Separation of Concerns" style="text;html=1;align=center;verticalAlign=middle;whiteSpace=wrap;rounded=0;fontStyle=1;fontSize=16;" vertex="1" parent="1">
          <mxGeometry x="353.75" y="360" width="182.5" height="30" as="geometry" />
        </mxCell>
        <mxCell id="Z-WXcTuaH3rJTFH5lLq_-8" value="Separation of Concerns" style="text;html=1;align=center;verticalAlign=middle;whiteSpace=wrap;rounded=0;fontStyle=1;fontSize=16;" vertex="1" parent="1">
          <mxGeometry x="660" y="360" width="182.5" height="30" as="geometry" />
        </mxCell>
        <mxCell id="Z-WXcTuaH3rJTFH5lLq_-9" value="(only, from a different point of view)" style="text;html=1;align=center;verticalAlign=middle;resizable=0;points=[];autosize=1;strokeColor=none;fillColor=none;" vertex="1" parent="1">
          <mxGeometry x="650" y="380" width="210" height="30" as="geometry" />
        </mxCell>
        <mxCell id="Z-WXcTuaH3rJTFH5lLq_-10" value="Date Picker" style="rounded=0;whiteSpace=wrap;html=1;horizontal=0;fillColor=#dae8fc;strokeColor=#6c8ebf;" vertex="1" parent="1">
          <mxGeometry x="680" y="420" width="20" height="170" as="geometry" />
        </mxCell>
        <mxCell id="Z-WXcTuaH3rJTFH5lLq_-11" value="Modal" style="rounded=0;whiteSpace=wrap;html=1;horizontal=0;fillColor=#f8cecc;strokeColor=#b85450;" vertex="1" parent="1">
          <mxGeometry x="720" y="420" width="20" height="170" as="geometry" />
        </mxCell>
        <mxCell id="Z-WXcTuaH3rJTFH5lLq_-12" value="List" style="rounded=0;whiteSpace=wrap;html=1;horizontal=0;fillColor=#ffe6cc;strokeColor=#d79b00;" vertex="1" parent="1">
          <mxGeometry x="800" y="420" width="20" height="170" as="geometry" />
        </mxCell>
        <mxCell id="Z-WXcTuaH3rJTFH5lLq_-13" value="List Item" style="rounded=0;whiteSpace=wrap;html=1;horizontal=0;fillColor=#fff2cc;strokeColor=#d6b656;" vertex="1" parent="1">
          <mxGeometry x="760" y="420" width="20" height="170" as="geometry" />
        </mxCell>
        <mxCell id="Z-WXcTuaH3rJTFH5lLq_-14" value="Media" style="rounded=0;whiteSpace=wrap;html=1;horizontal=0;fillColor=#e1d5e7;strokeColor=#9673a6;" vertex="1" parent="1">
          <mxGeometry x="840" y="420" width="20" height="170" as="geometry" />
        </mxCell>
        <mxCell id="Z-WXcTuaH3rJTFH5lLq_-18" value="" style="endArrow=none;dashed=1;html=1;dashPattern=1 3;strokeWidth=2;rounded=0;" edge="1" parent="1">
          <mxGeometry width="50" height="50" relative="1" as="geometry">
            <mxPoint x="600" y="640" as="sourcePoint" />
            <mxPoint x="600" y="320" as="targetPoint" />
          </mxGeometry>
        </mxCell>
      </root>
    </mxGraphModel>
  </diagram>
</mxfile>
